<svg version="1.1" xmlns="http://www.w3.org/2000/svg" style="display: block;" viewBox="0 0 1172 1264" width="293" height="316" preserveAspectRatio="none">
<defs>
	<linearGradient id="Gradient1" gradientUnits="userSpaceOnUse" x1="502.402" y1="388.077" x2="460.082" y2="607.83">
		<stop class="stop0" offset="0" stop-opacity="1" stop-color="rgb(46,50,126)"/>
		<stop class="stop1" offset="1" stop-opacity="1" stop-color="rgb(81,98,181)"/>
	</linearGradient>
	<linearGradient id="Gradient2" gradientUnits="userSpaceOnUse" x1="943.968" y1="394.004" x2="932.691" y2="308.102">
		<stop class="stop0" offset="0" stop-opacity="1" stop-color="rgb(80,173,182)"/>
		<stop class="stop1" offset="1" stop-opacity="1" stop-color="rgb(116,216,203)"/>
	</linearGradient>
	<linearGradient id="Gradient3" gradientUnits="userSpaceOnUse" x1="814.86" y1="555.98" x2="951.885" y2="395.169">
		<stop class="stop0" offset="0" stop-opacity="1" stop-color="rgb(42,59,128)"/>
		<stop class="stop1" offset="1" stop-opacity="1" stop-color="rgb(87,184,187)"/>
	</linearGradient>
	<linearGradient id="Gradient4" gradientUnits="userSpaceOnUse" x1="892.111" y1="190.824" x2="962.902" y2="105.291">
		<stop class="stop0" offset="0" stop-opacity="1" stop-color="rgb(104,201,203)"/>
		<stop class="stop1" offset="1" stop-opacity="1" stop-color="rgb(157,233,232)"/>
	</linearGradient>
</defs>
<path transform="translate(0,0)" fill="rgb(252,252,253)" d="M 0 0 L 1172 0 L 1172 1264 L 0 1264 L 0 0 z"/>
<path transform="translate(0,0)" fill="rgb(252,252,253)" d="M 936.077 75.7754 C 916.293 44.7635 959.316 32.906 969.632 53.2248 C 978.074 69.8522 961.354 85.6777 940.413 79.0067 C 933.266 90.0335 917.965 108.254 908.29 118.255 C 913.118 121.728 926.413 130.847 930.151 134.41 C 954.671 152.726 978.879 180.699 998.706 203.747 C 1009.02 204.155 1043.95 204.582 1052.2 205.897 C 1064.44 205.881 1076.68 205.975 1088.91 206.18 C 1091.27 193.41 1097.8 183.805 1112.39 186.836 C 1118.39 188.099 1123.63 191.703 1126.95 196.847 C 1137.64 213.564 1124.45 225.514 1108.85 230.382 C 1103.96 229.027 1097.52 225.882 1093.66 226.124 C 1091.43 227.466 1090.51 228.141 1088.51 229.806 C 1076.5 243.964 1056.74 263.637 1043.47 278.263 C 1051.76 295.977 1062.05 318.354 1066.52 337.311 C 1071.74 351.744 1076.12 373.53 1078.61 388.793 C 1091.79 468.756 1080.39 550.836 1045.9 624.174 C 1042.44 631.552 1031.25 653.968 1026.31 659.933 C 1022.2 669.203 1009.76 686.371 1003.07 695.081 C 957.713 754.204 896.809 803.735 827.026 830.57 C 725.392 869.416 612.536 866.597 512.968 822.725 C 493.933 814.228 461.524 797.368 444.873 784.47 C 429.95 801.518 417.355 816.093 403.286 833.856 C 412.78 863.438 403.532 891.194 383.132 913.22 C 367.748 929.828 352.64 947.04 337.743 964.075 L 298.452 1009.02 C 293.658 1014.49 284.185 1025.97 279.343 1030.71 C 276.197 1036.93 184.567 1139.62 175.678 1147.59 C 168.127 1154.34 159.39 1159.63 149.91 1163.19 C 83.0358 1188.61 18.4154 1119.94 48.3103 1054.79 C 55.1395 1039.91 73.4858 1022.33 84.698 1010.12 L 129.426 961.334 C 133.751 956.625 148.907 940.901 150.892 936.067 C 151.312 932.895 150.7 933.973 152.975 932.05 C 153.335 932.126 153.688 932.265 154.056 932.276 C 157.434 932.38 202.744 880.782 209.903 874.251 C 210.283 873.576 214.177 869.244 214.948 868.364 C 215.87 867.144 217.115 865.903 218.173 864.767 C 242.215 839.91 262.989 812.83 289.135 788.841 C 284.415 784.908 254.235 755.847 251.446 751.704 L 253.109 748.886 C 265.982 758.148 281.589 774.797 293.042 786.3 C 310.161 777.16 325.318 775.87 343.908 780.684 C 353.753 768.686 376.651 743.728 387.239 732.962 C 355.115 699.556 324.714 657.169 306.804 614.24 L 307.039 613.908 C 305.192 612.916 305.214 612.654 304.079 610.937 C 304.284 606.39 289.523 566.67 287.056 557.689 C 239.438 384.347 320.227 187.171 478.995 99.6734 C 479.979 98.9438 480.691 98.4275 481.76 97.8073 C 544.497 61.4185 619.599 43.6015 691.97 46.7305 C 701.091 47.1248 721.438 47.6292 729.885 49.8262 C 764.111 51.7378 843.796 74.2479 869.735 94.3553 C 879.61 99.1184 894 108.953 903.582 115.302 C 914.488 102.188 925.32 89.0123 936.077 75.7754 z"/>
<path transform="translate(0,0)" fill="rgb(52,72,145)" d="M 478.995 99.6734 L 479.748 99.5289 C 483.822 98.715 486.735 96.8256 489.844 97.239 C 495.047 101.983 507.047 120.077 508.573 127.414 C 509.274 130.784 505.74 136.078 507.417 140.512 L 510.497 141.297 C 508.59 144.297 507.367 142.85 505.234 146.729 C 492.79 154.961 479.006 162.859 467.297 171.944 C 322.048 284.633 284.229 496.4 389.518 649.333 C 440.78 723.792 517.503 776.719 606.438 794.665 C 698.189 813.897 793.821 795.762 872.162 744.277 C 910.899 718.103 944.142 684.606 970.018 645.67 C 976.288 636.386 981.347 626.509 987.344 617.305 C 993.851 613.222 993.408 605.262 997.683 602.942 C 998.296 608.169 1004.62 609.466 1008.63 611.425 C 1013.2 613.66 1012.93 614.088 1017.89 612.491 C 1023.52 615.911 1028.29 628.774 1030.04 634.8 C 1034.18 649.109 1027.12 651.391 1026.31 659.933 C 1022.2 669.203 1009.76 686.371 1003.07 695.081 C 957.713 754.204 896.809 803.735 827.026 830.57 C 725.392 869.416 612.536 866.597 512.968 822.725 C 493.933 814.228 461.524 797.368 444.873 784.47 C 429.95 801.518 417.355 816.093 403.286 833.856 C 412.78 863.438 403.532 891.194 383.132 913.22 C 367.748 929.828 352.64 947.04 337.743 964.075 L 298.452 1009.02 C 293.658 1014.49 284.185 1025.97 279.343 1030.71 C 276.197 1036.93 184.567 1139.62 175.678 1147.59 C 168.127 1154.34 159.39 1159.63 149.91 1163.19 C 83.0358 1188.61 18.4154 1119.94 48.3103 1054.79 C 55.1395 1039.91 73.4858 1022.33 84.698 1010.12 L 129.426 961.334 C 133.751 956.625 148.907 940.901 150.892 936.067 C 151.312 932.895 150.7 933.973 152.975 932.05 C 153.335 932.126 153.688 932.265 154.056 932.276 C 157.434 932.38 202.744 880.782 209.903 874.251 C 210.283 873.576 214.177 869.244 214.948 868.364 C 215.87 867.144 217.115 865.903 218.173 864.767 C 242.215 839.91 262.989 812.83 289.135 788.841 C 284.415 784.908 254.235 755.847 251.446 751.704 L 253.109 748.886 C 265.982 758.148 281.589 774.797 293.042 786.3 C 310.161 777.16 325.318 775.87 343.908 780.684 C 353.753 768.686 376.651 743.728 387.239 732.962 C 355.115 699.556 324.714 657.169 306.804 614.24 L 307.039 613.908 C 305.192 612.916 305.214 612.654 304.079 610.937 C 304.284 606.39 289.523 566.67 287.056 557.689 C 239.438 384.347 320.227 187.171 478.995 99.6734 z"/>
<path transform="translate(0,0)" fill="rgb(77,146,170)" d="M 213.653 883.159 C 227.037 871.441 233.949 857.026 251.475 846.731 C 258.319 842.711 267.303 815.001 283.516 812.198 C 293.622 810.451 298.457 803.858 309.605 808.496 L 309.455 809.422 L 306.765 809.349 L 310.839 812.72 C 321.579 831.866 249.927 896.59 237.402 913.487 C 235.902 915.511 226.147 925.446 223.969 927.102 C 220.099 936.68 211.306 939.044 205.225 946.371 C 198.32 954.692 182.435 976.032 184.396 987.737 C 186.87 994.306 193.099 997.001 191.663 1006.19 C 193.179 1008.56 196.591 1008.26 198.096 1010.22 C 207.808 1022.87 218.282 1036.86 230.668 1047.13 C 233.66 1047.27 248.666 1052.84 253.588 1054.11 L 254.428 1056.09 C 261.106 1052.24 272.652 1030.79 279.343 1030.71 C 276.197 1036.93 184.567 1139.62 175.678 1147.59 C 168.127 1154.34 159.39 1159.63 149.91 1163.19 C 83.0358 1188.61 18.4154 1119.94 48.3103 1054.79 C 55.1395 1039.91 73.4858 1022.33 84.698 1010.12 L 129.426 961.334 C 133.751 956.625 148.907 940.901 150.892 936.067 C 151.312 932.895 150.7 933.973 152.975 932.05 C 153.335 932.126 153.688 932.265 154.056 932.276 C 157.434 932.38 202.744 880.782 209.903 874.251 C 208.791 878.819 202.148 884.911 198.557 889.211 C 203.165 887.351 209.079 884.751 213.653 883.159 z"/>
<path transform="translate(0,0)" fill="rgb(80,125,180)" d="M 310.839 812.72 C 321.579 831.866 249.927 896.59 237.402 913.487 C 235.902 915.511 226.147 925.446 223.969 927.102 C 215.931 932.964 203.289 945.143 195.563 952.186 C 186.501 955.51 175.386 963.49 168.377 970.164 C 166.815 971.651 161.402 977.011 160 977.833 C 163.288 969.185 180.038 960.585 182.637 955.672 C 188.79 944.041 192.328 942.104 201.116 932.656 L 240.01 890.473 C 259.267 869.228 276.115 845.849 297.899 826.755 C 302.539 822.688 306.026 817.3 310.839 812.72 z"/>
<path transform="translate(0,0)" fill="rgb(77,92,169)" d="M 213.653 883.159 C 227.037 871.441 233.949 857.026 251.475 846.731 C 258.319 842.711 267.303 815.001 283.516 812.198 C 293.622 810.451 298.457 803.858 309.605 808.496 L 309.455 809.422 L 306.765 809.349 C 286.153 827.58 269.036 838.857 253.458 862.455 C 249.618 868.272 220.919 889.505 213.834 893.49 L 212.873 892.856 L 214.906 890.052 C 214.218 887.696 213.295 885.513 213.653 883.159 z"/>
<path transform="translate(0,0)" fill="rgb(93,152,188)" d="M 160 977.833 C 161.402 977.011 166.815 971.651 168.377 970.164 C 175.386 963.49 186.501 955.51 195.563 952.186 C 186.872 963.251 154.808 998.287 143.479 1006.15 C 143.11 1002.59 144.214 999.228 145.074 995.724 C 147.234 992.102 156.832 980.616 160 977.833 z"/>
<path transform="translate(0,0)" fill="rgb(93,152,188)" d="M 143.479 1006.15 C 142.39 1010.67 118.269 1036.64 114.675 1036.83 C 113.789 1035.02 113.789 1034.67 112.213 1033.37 C 108.101 1035.18 102.607 1045.59 95.6044 1047.23 C 96.1775 1043.78 140.249 999.544 145.074 995.724 C 144.214 999.228 143.11 1002.59 143.479 1006.15 z"/>
<path transform="translate(0,0)" fill="url(#Gradient4)" d="M 936.077 75.7754 C 916.293 44.7635 959.316 32.906 969.632 53.2248 C 978.074 69.8522 961.354 85.6777 940.413 79.0067 C 933.266 90.0335 917.965 108.254 908.29 118.255 C 913.118 121.728 926.413 130.847 930.151 134.41 C 954.671 152.726 978.879 180.699 998.706 203.747 C 1009.02 204.155 1043.95 204.582 1052.2 205.897 C 1064.44 205.881 1076.68 205.975 1088.91 206.18 C 1091.27 193.41 1097.8 183.805 1112.39 186.836 C 1118.39 188.099 1123.63 191.703 1126.95 196.847 C 1137.64 213.564 1124.45 225.514 1108.85 230.382 C 1103.96 229.027 1097.52 225.882 1093.66 226.124 C 1091.43 227.466 1090.51 228.141 1088.51 229.806 C 1076.5 243.964 1056.74 263.637 1043.47 278.263 C 1051.76 295.977 1062.05 318.354 1066.52 337.311 C 1059.15 331.767 1058.29 307.389 1048.33 296.7 C 1046.8 298.364 1045.31 300.072 1043.87 301.822 C 1044.03 305.319 1044.02 305.796 1042.93 309.116 C 1042.17 309.655 1041.65 310.356 1040.69 310.234 C 1032.76 309.233 998.037 278.585 991.943 270.91 C 985.848 263.233 982.173 254.438 976.281 246.747 C 973.883 243.617 971.122 239.758 968.074 237.299 C 965.304 235.063 949.827 226.126 946.741 225.711 C 947.896 229.111 957.171 239.164 960.057 243.219 C 969.689 256.752 999.119 299.496 999.446 315.244 C 991.212 301.674 985.372 285.214 976.36 270.754 C 921.35 182.49 849.582 133.135 748.796 107.943 C 677.534 95.283 617.276 97.8462 548.724 125.233 C 533.232 131.423 520.023 139.933 505.234 146.729 C 507.367 142.85 508.59 144.297 510.497 141.297 L 507.417 140.512 C 505.74 136.078 509.274 130.784 508.573 127.414 C 507.047 120.077 495.047 101.983 489.844 97.239 C 486.735 96.8256 483.822 98.715 479.748 99.5289 L 478.995 99.6734 C 479.979 98.9438 480.691 98.4275 481.76 97.8073 C 544.497 61.4185 619.599 43.6015 691.97 46.7305 C 701.091 47.1248 721.438 47.6292 729.885 49.8262 C 764.111 51.7378 843.796 74.2479 869.735 94.3553 C 879.61 99.1184 894 108.953 903.582 115.302 C 914.488 102.188 925.32 89.0123 936.077 75.7754 z"/>
<path transform="translate(0,0)" fill="rgb(77,146,170)" d="M 478.995 99.6734 C 479.979 98.9438 480.691 98.4275 481.76 97.8073 C 544.497 61.4185 619.599 43.6015 691.97 46.7305 C 701.091 47.1248 721.438 47.6292 729.885 49.8262 C 733.094 52.9008 751.996 54.9535 757.124 55.2457 C 756.494 64.2111 754.142 67.8026 757.234 75.9091 L 756.603 78.3368 C 753.674 79.5876 745.434 77.4693 742.65 78.5135 C 748.585 81.6711 767.929 83.0743 773.443 85.1527 C 776.073 86.1438 787.465 98.158 794.104 101.9 C 805.025 108.056 816.055 111.725 826.403 117.93 L 826.051 118.061 C 837.006 122.973 848.858 128.548 859.817 133.213 C 872.834 138.753 902.164 167.881 904.194 181.254 C 894.319 174.419 883.809 165.267 874.321 158.979 C 839.191 135.696 793.658 115.068 752.001 106.947 L 748.796 107.943 C 677.534 95.283 617.276 97.8462 548.724 125.233 C 533.232 131.423 520.023 139.933 505.234 146.729 C 507.367 142.85 508.59 144.297 510.497 141.297 L 507.417 140.512 C 505.74 136.078 509.274 130.784 508.573 127.414 C 507.047 120.077 495.047 101.983 489.844 97.239 C 486.735 96.8256 483.822 98.715 479.748 99.5289 L 478.995 99.6734 z"/>
<path transform="translate(0,0)" fill="rgb(252,252,253)" d="M 1065.52 211.866 C 1071.67 211.79 1084.2 210.61 1088.7 214.269 C 1090.26 218.538 1089.56 219.213 1086.47 222.899 C 1084.38 224.509 1071.06 238.789 1067.93 242.056 C 1058.35 252.07 1048.78 261.142 1038.91 270.847 C 1028.44 251.293 1016.42 229.693 1003.24 211.942 C 1024 212.098 1044.76 212.072 1065.52 211.866 z"/>
<path transform="translate(0,0)" fill="rgb(106,205,201)" d="M 936.077 75.7754 C 916.293 44.7635 959.316 32.906 969.632 53.2248 C 978.074 69.8522 961.354 85.6777 940.413 79.0067 C 933.266 90.0335 917.965 108.254 908.29 118.255 C 913.118 121.728 926.413 130.847 930.151 134.41 L 930.074 135.833 C 927.046 135.949 914.248 122.973 909.889 122.301 C 908.674 122.114 908.524 124.167 905.229 122.856 C 906.039 121.067 906.396 120.595 906.401 118.587 C 897.01 112.869 875.841 100.924 868.03 94.8627 L 869.735 94.3553 C 879.61 99.1184 894 108.953 903.582 115.302 C 914.488 102.188 925.32 89.0123 936.077 75.7754 z"/>
<path transform="translate(0,0)" fill="rgb(106,205,201)" d="M 1088.91 206.18 C 1091.27 193.41 1097.8 183.805 1112.39 186.836 C 1118.39 188.099 1123.63 191.703 1126.95 196.847 C 1137.64 213.564 1124.45 225.514 1108.85 230.382 C 1103.96 229.027 1097.52 225.882 1093.66 226.124 C 1091.43 227.466 1090.51 228.141 1088.51 229.806 C 1088.97 225.769 1088.26 227.201 1091.13 224.416 C 1089.11 223.514 1088.63 223.389 1086.47 222.899 C 1089.56 219.213 1090.26 218.538 1088.7 214.269 C 1084.2 210.61 1071.67 211.79 1065.52 211.866 C 1055.38 210.38 1037.19 210.635 1026.51 210.55 L 1025.98 209.996 C 1030.5 208.662 1075.83 210.968 1086.67 209.569 L 1086.79 208.674 C 1070.85 204.184 1047.59 209.847 1032.24 206.56 C 1039.21 206.502 1045.23 206.419 1052.2 205.897 C 1064.44 205.881 1076.68 205.975 1088.91 206.18 z"/>
<path transform="translate(0,0)" fill="rgb(77,146,170)" d="M 999.446 315.244 C 999.119 299.496 969.689 256.752 960.057 243.219 C 957.171 239.164 947.896 229.111 946.741 225.711 C 949.827 226.126 965.304 235.063 968.074 237.299 C 971.122 239.758 973.883 243.617 976.281 246.747 C 982.173 254.438 985.848 263.233 991.943 270.91 C 998.037 278.585 1032.76 309.233 1040.69 310.234 C 1041.65 310.356 1042.17 309.655 1042.93 309.116 C 1044.02 305.796 1044.03 305.319 1043.87 301.822 C 1045.31 300.072 1046.8 298.364 1048.33 296.7 C 1058.29 307.389 1059.15 331.767 1066.52 337.311 C 1071.74 351.744 1076.12 373.53 1078.61 388.793 C 1091.79 468.756 1080.39 550.836 1045.9 624.174 C 1042.44 631.552 1031.25 653.968 1026.31 659.933 C 1027.12 651.391 1034.18 649.109 1030.04 634.8 C 1028.29 628.774 1023.52 615.911 1017.89 612.491 C 1012.93 614.088 1013.2 613.66 1008.63 611.425 C 1004.62 609.466 998.296 608.169 997.683 602.942 C 993.408 605.262 993.851 613.222 987.344 617.305 C 1028.89 532.723 1037.81 454.962 1015.65 362.623 C 1011.45 345.114 1004.86 331.641 999.446 315.244 z"/>
<path transform="translate(0,0)" fill="rgb(77,92,169)" d="M 434.297 413.194 C 433.768 409.561 434.19 406.394 434.11 402.803 C 433.285 365.971 452.401 328.926 487.674 314.683 C 509.305 305.949 538.334 306.914 559.969 316.267 C 586.694 327.82 605.377 349.31 618.554 374.802 C 621.983 381.27 627.098 388.935 629.704 395.599 C 639.005 412.538 648.457 429.394 658.06 446.165 C 672.796 471.913 694.614 507.414 702.459 535.711 C 705.391 546.286 705.183 573.81 705.22 585.244 C 705.338 591.378 705.048 598.61 704.948 604.831 C 673.251 605.167 641.551 604.894 609.865 604.012 C 609.271 585.61 612.443 519.141 605.666 508.086 C 597.175 494.233 533.904 399.413 526.268 396.903 C 519.265 389.293 502.005 386.165 491.658 385.659 C 470.472 384.623 457.15 393.865 442.055 407.213 C 439.031 409.887 438.24 412.298 434.297 413.194 z"/>
<path transform="translate(0,0)" fill="rgb(52,72,145)" d="M 705.22 585.244 C 703.357 583.97 701.016 582.685 699.033 581.572 C 645.75 551.694 620.074 483.801 625.096 425.062 C 625.711 417.867 624.706 400.422 629.704 395.599 C 639.005 412.538 648.457 429.394 658.06 446.165 C 672.796 471.913 694.614 507.414 702.459 535.711 C 705.391 546.286 705.183 573.81 705.22 585.244 z"/>
<path transform="translate(0,0)" fill="rgb(80,125,180)" d="M 624.491 310.883 L 688.595 311.004 C 700.807 311.036 717.344 310.623 729.085 311.935 C 741.107 334.354 749.788 356.559 759.764 379.88 C 771.394 406.779 783.202 433.601 795.189 460.344 C 796.815 463.956 806.956 487.493 808.627 489.322 C 811.002 498.242 861.931 601.019 864.876 603.672 L 864.723 605.467 C 860.47 608.748 826.713 607.434 819.487 607.117 C 796.381 606.102 770.607 593.64 755.459 575.922 C 743.263 561.603 733.744 533.939 725.009 516.33 L 682.624 429.479 C 669.095 402.108 654.832 374.526 642.09 346.85 C 636.343 334.803 630.477 322.813 624.491 310.883 z"/>
<path transform="translate(0,0)" fill="rgb(77,92,169)" d="M 642.09 346.85 C 645.657 344.578 647.946 342.789 652.19 343.742 C 684.043 351.08 710.912 358.786 731.714 385.574 C 763.218 426.145 759.034 479.834 758.258 528.341 C 758.122 536.828 758.24 569.657 755.459 575.922 C 743.263 561.603 733.744 533.939 725.009 516.33 L 682.624 429.479 C 669.095 402.108 654.832 374.526 642.09 346.85 z"/>
<path transform="translate(0,0)" fill="url(#Gradient3)" d="M 898.773 304.121 C 900.603 306.386 900.853 307.006 903.386 308.23 L 903.844 308.346 C 904.694 309.546 904.934 310.448 906.035 310.514 C 929.241 311.905 955.483 310.362 978.708 310.07 C 969.98 332.977 960.429 355.499 952.361 378.656 C 951.438 381.307 949.078 388.639 947.602 390.697 C 942.314 408.637 931.757 433.356 924.662 451.267 L 884.755 553.767 C 878.775 569.058 869.941 588.664 864.876 603.672 C 861.931 601.019 811.002 498.242 808.627 489.322 C 811.85 477.998 827.924 443.503 833.407 431.43 C 845.34 401.753 856.194 372.552 867.673 342.746 C 871.373 333.14 875.925 319.578 880.271 310.701 C 884.96 308.083 890.712 310.341 895.719 311.761 C 897.256 309.161 897.83 306.968 898.773 304.121 z"/>
<path transform="translate(0,0)" fill="url(#Gradient2)" d="M 898.773 304.121 C 900.603 306.386 900.853 307.006 903.386 308.23 L 903.844 308.346 C 904.694 309.546 904.934 310.448 906.035 310.514 C 929.241 311.905 955.483 310.362 978.708 310.07 C 969.98 332.977 960.429 355.499 952.361 378.656 C 951.438 381.307 949.078 388.639 947.602 390.697 C 946.426 391.643 945.748 393.134 944.365 394.621 C 935.05 381.284 931.695 379.271 920.352 367.575 C 914.339 367.797 907.248 368.57 904.082 362.085 C 906.882 356.215 919.584 357.274 927.705 353.12 C 919.729 354.302 908.048 356.867 901.054 360.715 C 900.144 358.239 901.571 347.911 896.153 343.679 C 893.92 341.935 893.514 340.146 892.783 337.448 L 893.672 336.886 C 892.295 327.277 893.921 321.064 895.719 311.761 C 897.256 309.161 897.83 306.968 898.773 304.121 z"/>
<path transform="translate(0,0)" fill="rgb(95,180,192)" d="M 898.773 304.121 C 900.603 306.386 900.853 307.006 903.386 308.23 C 898.543 318.174 896.827 335.736 894.91 338.354 L 893.672 336.886 C 892.295 327.277 893.921 321.064 895.719 311.761 C 897.256 309.161 897.83 306.968 898.773 304.121 z"/>
<path transform="translate(0,0)" fill="rgb(106,205,201)" d="M 833.407 431.43 C 845.34 401.753 856.194 372.552 867.673 342.746 C 871.373 333.14 875.925 319.578 880.271 310.701 C 884.96 308.083 890.712 310.341 895.719 311.761 C 893.921 321.064 892.295 327.277 893.672 336.886 L 892.783 337.448 C 893.514 340.146 893.92 341.935 896.153 343.679 C 901.571 347.911 900.144 358.239 901.054 360.715 C 881.598 375.816 866.47 436.529 833.407 431.43 z"/>
<path transform="translate(0,0)" fill="url(#Gradient1)" d="M 434.297 413.194 C 438.24 412.298 439.031 409.887 442.055 407.213 C 457.15 393.865 470.472 384.623 491.658 385.659 C 502.005 386.165 519.265 389.293 526.268 396.903 L 525.602 537.152 C 525.499 560.012 525.939 582.471 525.15 605.341 C 494.127 605.234 463.103 605.332 432.08 605.634 L 432.863 519.19 C 432.966 505.157 433.745 484.341 432.927 470.738 C 423.876 472.079 414.818 473.373 405.754 474.619 C 403.063 472.717 403.861 473.828 402.999 470.174 C 401.928 466.333 401.315 464.815 401.496 460.808 L 397.637 457.053 C 400.114 452.909 412.729 441.06 416.856 436.701 C 423.133 430.072 426.219 426.262 431.817 418.744 C 432.473 417.61 433.707 414.544 434.297 413.194 z"/>
<path transform="translate(0,0)" fill="rgb(252,252,253)" d="M 397.637 457.053 C 400.114 452.909 412.729 441.06 416.856 436.701 C 423.133 430.072 426.219 426.262 431.817 418.744 C 433.18 420.979 434.584 422.15 433.186 424.847 C 432.244 438.547 433.592 452.342 432.874 465.729 L 432.927 470.738 C 423.876 472.079 414.818 473.373 405.754 474.619 C 403.063 472.717 403.861 473.828 402.999 470.174 C 401.928 466.333 401.315 464.815 401.496 460.808 L 397.637 457.053 z"/>
<path transform="translate(0,0)" fill="rgb(77,146,170)" d="M 397.637 457.053 C 400.114 452.909 412.729 441.06 416.856 436.701 C 423.133 430.072 426.219 426.262 431.817 418.744 C 433.18 420.979 434.584 422.15 433.186 424.847 C 423.42 433.397 411.314 451.635 401.496 460.808 L 397.637 457.053 z"/>
<path transform="translate(0,0)" fill="rgb(93,152,188)" d="M 432.874 465.729 L 432.927 470.738 C 423.876 472.079 414.818 473.373 405.754 474.619 C 403.063 472.717 403.861 473.828 402.999 470.174 C 411.355 468.391 424.119 466.971 432.874 465.729 z"/>
<path transform="translate(0,0)" fill="rgb(95,180,192)" d="M 405.754 474.619 C 400.862 478.612 402.481 488.121 395.97 491.265 C 391.657 493.347 383.844 494.209 379.305 492.249 C 352.924 480.853 368.199 444.813 395.159 456.932 C 396.617 457.586 396.071 457.343 397.637 457.053 L 401.496 460.808 C 401.315 464.815 401.928 466.333 402.999 470.174 C 403.861 473.828 403.063 472.717 405.754 474.619 z"/>
<path transform="translate(0,0)" fill="rgb(93,152,188)" d="M 898.773 304.121 C 903.049 292.311 925.852 235.532 934.594 229.569 C 938.231 229.603 938.909 230.053 942.091 231.617 L 943.017 233.38 C 940.431 236.461 930.837 246.404 929.645 248.265 C 920.077 263.207 908.368 291.245 903.844 308.346 L 903.386 308.23 C 900.853 307.006 900.603 306.386 898.773 304.121 z"/>
<path transform="translate(0,0)" fill="rgb(93,152,188)" d="M 172.974 831.944 C 140.899 850.701 126.067 802.383 157.198 796.901 C 168.172 794.96 177.5 802.382 179.384 813.06 C 180.393 818.78 175.739 823.756 176.689 829.422 C 175.334 830.841 174.895 831.617 172.974 831.944 z"/>
<path transform="translate(0,0)" fill="rgb(77,92,169)" d="M 206.19 667.043 C 212.096 645.391 225.519 638.557 243.2 654.604 C 243.976 656.575 244.743 658.053 244.825 660.166 C 246.91 670.69 245.293 681.109 233.76 685.097 C 228.759 686.772 223.297 686.381 218.585 684.011 C 210.722 680.075 208.835 674.832 206.19 667.043 z"/>
<path transform="translate(0,0)" fill="rgb(95,180,192)" d="M 109.57 911.159 C 54.7913 907.52 109.684 835.496 125.417 891.892 C 123.241 896.188 122.186 898.03 121.049 902.68 C 120.502 903.563 119.91 904.71 119.181 905.371 C 116.647 906.255 112.007 909.551 109.57 911.159 z"/>
<path transform="translate(0,0)" fill="rgb(77,92,169)" d="M 251.446 751.704 C 250.817 751.131 250.101 750.479 249.298 749.747 C 241.81 751.524 235.518 752.974 228.275 748.873 C 224.623 746.805 220.98 741.586 220.139 736.908 C 219.331 732.363 220.317 727.681 222.889 723.847 C 231.323 711.204 256.159 710.621 258.052 728.144 C 258.971 736.644 257.896 740.764 252.66 747.349 L 253.109 748.886 L 251.446 751.704 z"/>
<path transform="translate(0,0)" fill="rgb(77,92,169)" d="M 243.2 654.604 C 249.023 647.786 295.107 615.067 304.079 610.937 C 305.214 612.654 305.192 612.916 307.039 613.908 L 306.804 614.24 C 285.715 631.46 268.256 638.593 244.825 660.166 C 244.743 658.053 243.976 656.575 243.2 654.604 z"/>
<path transform="translate(0,0)" fill="rgb(95,180,192)" d="M 176.689 829.422 C 183.634 831.996 207.465 856.961 218.173 864.767 C 217.115 865.903 215.87 867.144 214.948 868.364 C 205.34 861.449 182.334 840.4 172.974 831.944 C 174.895 831.617 175.334 830.841 176.689 829.422 z"/>
<path transform="translate(0,0)" fill="rgb(95,180,192)" d="M 121.049 902.68 C 127.064 908.161 149.371 926.907 152.975 932.05 C 150.7 933.973 151.312 932.895 150.892 936.067 C 141.816 929.284 132.421 919.437 123.168 912.478 C 120.935 910.799 119.965 908.003 119.181 905.371 C 119.91 904.71 120.502 903.563 121.049 902.68 z"/>
</svg>